<svg xmlns="http://www.w3.org/2000/svg"
	xmlns:xlink="http://www.w3.org/1999/xlink" viewBox="0 0 512 512">

	<defs>
		<linearGradient id="0" x1="0.04" y1="0.3" x2="0.96" y2="0.7">
			<stop offset="0%" stop-color="#41f1cd"/>
			<stop offset="25%" stop-color="#36e6d2"/>
			<stop offset="50%" stop-color="#2adcd6"/>
			<stop offset="100%" stop-color="#00c7db"/>
		</linearGradient>
	</defs>

	<path d="M0,381c0-83.7,0-167.3,0-251c1-9.4,1.9-18.8,3-28.2C9.5,49.4,49.4,9.5,101.8,3c9.7-1.2,19.5-2,29.2-3
			c83.3,0,166.7,0,250,0c9.9,1,19.8,1.9,29.7,3.1c51.4,6.2,92,46.8,98.2,98.2c1.2,9.6,2,19.1,3.1,28.7c0,83.7,0,167.3,0,251
			c-1,9.7-1.8,19.5-3,29.2c-6.5,52.5-46.3,92.3-98.8,98.8c-9.4,1.2-18.8,2-28.2,3c-84,0-168,0-252,0c-9.6-1-19.2-1.9-28.7-3.1
			c-51.4-6.2-92-46.8-98.2-98.3C1.9,400.8,1,390.9,0,381z M74.1,256.1c0.1,100.4,81.7,181.9,182,181.8
			c100.3-0.1,181.8-81.8,181.8-182.1C437.8,155.5,356,73.9,255.8,74.1C155.3,74.3,73.9,155.8,74.1,256.1z" fill="#272d2d"/>
	<path d="M74.1,256.1c-0.1-100.3,81.3-181.8,181.7-182c100.2-0.2,182,81.4,182.1,181.7c0.1,100.3-81.5,182-181.8,182.1
			C155.8,438,74.2,356.5,74.1,256.1z" fill="url(#0)"/>
</svg>
