<svg xmlns="http://www.w3.org/2000/svg" viewBox="0 0 566.9291 584.4721"><defs><style>.a{fill:#b4cc95;}.b{fill:#5c8727;}</style></defs><title>v2.2</title><path class="a" d="M459.0144,451.4136V421.0788q-4.0987-65.3238-63.658-88.272a53.25,53.25,0,0,0,22.1375-43.442q-4.6454-48.3518-51.3836-53.0056-46.9744,4.6452-51.3619,53.0056a53.5894,53.5894,0,0,0,21.3046,42.9086,92.3007,92.3007,0,0,0-38.51,23.5036,92.3134,92.3134,0,0,1,28.1357,66.39v144.266q62.0273-30.58,96.7252-69.6781,34.7112-39.3214,36.6107-45.3416"/><path class="a" d="M243.4265,318.0558a50.2786,50.2786,0,0,0,4.6539-4.0987,55.6525,55.6525,0,0,0,15.562-38.7881q-4.6452-50.5617-53.2833-55.2047-48.638,4.6452-53.2832,55.2047a56.04,56.04,0,0,0,19.1273,42.0758q-58.1822,23.5037-62.014,87.4392v51.3618A314.45,314.45,0,0,0,134.96,484.4592a347.1711,347.1711,0,0,0,57.6377,55.76,253.52,253.52,0,0,0,92.0932,44.2529q9.2862-3.5521,18.3163-7.3645V404.6839q-3.8428-62.5693-59.5811-86.6282"/><path class="b" d="M263.92,141.2778a288.9392,288.9392,0,0,0-105.2-23.226,73.2679,73.2679,0,0,0,15.5838-45.9187,74.5774,74.5774,0,0,0-20.216-51.0842,66.7243,66.7243,0,0,0-94.3158-2.9646q-1.5285,1.4353-2.9646,2.9646a72.7592,72.7592,0,0,0-20.216,51.0842q1.8886,43.74,36.8884,63.9355a136.0948,136.0948,0,0,0-31.1677,22.4151Q-4.6626,206.58.5138,281.1674q5.1875,74.8655,57.3819,152.741c1.0887,1.6438,2.1773,3.2024,3.2877,4.6539.1706,0,.2558.0852.2558.2776a433.9594,433.9594,0,0,0,46.452,55.1828c2.1992,2.37,4.4617,4.6539,6.8312,6.8312A466.7941,466.7941,0,0,0,158.72,538.2975c-2.903-2.7325-5.7425-5.55-8.475-8.475A351.5612,351.5612,0,0,1,111.99,481.4708c-1.4515-2.0067-2.8177-4.0987-4.0988-6.2978q-49.44-81.9742-46.9854-157.6507,2.466-75.6982,56.2934-111.7756,44.2531-25.6809,100.5464-10.93a216.36,216.36,0,0,1,46.1745-53.539"/><path class="b" d="M524.5938,158.4836a137.843,137.843,0,0,0-30.5906-21.86q35.8-19.947,37.977-64.4907a74.4771,74.4771,0,0,0-20.2159-51.0842A68.3278,68.3278,0,0,0,462.8574,0a67.4127,67.4127,0,0,0-48.6512,21.0488,74.64,74.64,0,0,0-4.632,96.7252,277.2819,277.2819,0,0,0-65.0461,9.2861A388.5519,388.5519,0,0,0,293.7,148.109a289.8293,289.8293,0,0,0-70.2115,48.3517,231.0291,231.0291,0,0,1,61.7582,28.9686,211.3649,211.3649,0,0,1,88.5278-34.7112,122.0872,122.0872,0,0,1,79.5194,15.0286q52.9948,35.2554,56.2716,109.5766,3.2986,74.0653-43.9755,154.94-3.5523,5.7317-7.1088,11.2075a334.5846,334.5846,0,0,1-34.4336,43.9754q14.4735-11.4633,28.1357-24.5923,6.8531-6.82,13.4066-13.6624a432.88,432.88,0,0,0,43.1644-53.2832q52.45-77.8756,57.66-152.741,5.1872-74.577-41.82-122.6838"/></svg>