<svg xmlns="http://www.w3.org/2000/svg" viewBox="0 0 384 384"><title>rope</title><path d="M384,384H0V0H384ZM345.4756,182.3194c4.9057-5.33,10.042-10.1353,14.27-15.6413,15.88-20.6817,22.5582-44.2359,20.6188-70.2095-1.8765-25.1307-11.293-47.2445-29.12-64.8921C326.2466,6.83,295.5491-1.9695,261.2012,4.2565c-28.0037,5.076-51.1769,18.5153-65.8164,44.1257-1.382,2.4178-2.9579,3.1421-5.8785,3.2489-3.5254.1289-7.6341.95-10.3713,2.9845-9.4706,7.0377-12.4359,17.4827-12.7192,28.7171-.3588,14.226,4.1273,27.338,10.5593,39.7629,4.3489,8.4009,9.2721,16.5074,14.0792,24.6622a21.9422,21.9422,0,0,0,3.7974,4.1107c1.5909,1.561,3.414,2.9048,4.8811,4.5689,17.5351,19.8907,37.71,36.4545,61.8524,47.5609a157.9865,157.9865,0,0,0,29.2245,10.01c12.1942,2.9083,24.3254,1.8884,34.9083-5.931a12.5834,12.5834,0,0,1,1.4223,1.0778,21.9616,21.9616,0,0,1,1.7018,1.987c7.04,9.3478,10.8036,20.1951,13.9588,31.2618A222.3344,222.3344,0,0,1,351.19,301.577c.0667,7.204,2.2647,13.4087,9.2653,16.6138,11.1874,5.122,22.8128-2.6458,22.77-15.1581a248.314,248.314,0,0,0-7.0927-59.4073C370.4531,220.8484,363.517,198.5564,345.4756,182.3194ZM103.1381,381.5682a103.9867,103.9867,0,0,0,47.56-11.4391c12.7677-6.582,24.0736-14.985,32.4388-27.0439,9.8926-14.2607,20.17-28.2526,30.1836-42.43a6.5057,6.5057,0,0,1,6.1389-3.1415c9.6263.18,18.6268-1.9543,25.7745-8.9613,6.485-6.3573,7.0865-14.4847,1.8438-21.6076a15.3479,15.3479,0,0,0-20.4488-3.6822c-4.0758,2.4423-7.911,2.5782-12.1042,1.562a76.8946,76.8946,0,0,1-10.0361-2.88c-26.9254-10.5742-48.6042-28.2121-66.68-50.4884-9.0242-11.1211-16.4717-23.2243-19.9036-37.379-1.407-5.8036-1.6717-11.2244,2.1086-16.7745,5.1937-7.6252,3.0046-16.69-4.2364-21.7665-6.5836-4.6156-15.7913-3.1276-21.52,3.499-6.4238,7.43-9.203,16.2287-9.1916,25.8983a7.11,7.11,0,0,1-3.3532,6.4888Q58.5525,187.95,35.54,204.6846a38.9361,38.9361,0,0,0-5.8709,5.1865C6.9252,234.7776-1.2472,264.1674,3.9621,297.2045,11.7077,346.3275,53.43,381.6,103.1381,381.5682ZM123.2789,119.896c.0886,19.0162,4.5076,32.1123,11.1926,44.3919C154.2866,200.6863,183.63,227.17,220.39,245.58c13.0314,6.5262,26.7569,11.0439,41.6692,10.1938,8.08-.4606,15.43-2.9561,21.3665-8.6564,6.4662-6.2086,7.2645-14.3071,2.3325-21.2871a15.257,15.257,0,0,0-20.6055-4.2682c-4.5086,2.7378-8.7014,2.4885-13.2179,1.4748a61.0017,61.0017,0,0,1-9.6541-2.8675c-28.725-11.7029-51.6726-30.82-70.1018-55.544-7.4268-9.9636-13.4479-20.7418-16.137-33.0708-1.1926-5.4679-1.69-10.8236,2.2973-15.6569a12.9781,12.9781,0,0,0,2.3283-5.4393c1.5166-7.108-1.9737-14.4584-8.0319-17.3928a16.2543,16.2543,0,0,0-19.9578,4.236C125.8993,105.1589,123.2184,114.4349,123.2789,119.896Z" style="fill:#fff"/><path d="M345.4756,182.3194c18.0414,16.237,24.9775,38.529,30.657,61.306a248.314,248.314,0,0,1,7.0927,59.4073c.0428,12.5123-11.5826,20.28-22.77,15.1581-7.0006-3.2051-9.1986-9.41-9.2653-16.6138a222.3344,222.3344,0,0,0-8.3891-59.1728c-3.1552-11.0667-6.9189-21.914-13.9588-31.2618a21.9616,21.9616,0,0,0-1.7018-1.987,12.5834,12.5834,0,0,0-1.4223-1.0778c-10.5829,7.8194-22.7141,8.8393-34.9083,5.931a157.9865,157.9865,0,0,1-29.2245-10.01c-24.1428-11.1064-44.3173-27.67-61.8524-47.5609-1.4671-1.6641-3.29-3.0079-4.8811-4.5689a21.9422,21.9422,0,0,1-3.7974-4.1107c-4.8071-8.1548-9.73-16.2613-14.0792-24.6622-6.432-12.4249-10.9181-25.5369-10.5593-39.7629.2833-11.2344,3.2486-21.6794,12.7192-28.7171,2.7372-2.0341,6.8459-2.8556,10.3713-2.9845,2.9206-.1068,4.4965-.8311,5.8785-3.2489,14.6395-25.61,37.8127-39.05,65.8164-44.1257,34.3479-6.226,65.0454,2.5732,90.0433,27.32,17.8267,17.6476,27.2432,39.7614,29.12,64.8921,1.9394,25.9736-4.7384,49.5278-20.6188,70.21C355.5176,172.1841,350.3813,176.99,345.4756,182.3194Zm-139.28-71.0269c7.7282-10.2467,14.3438-19.658,21.62-28.5248,12.8065-15.6057,29.7462-21.4684,49.3881-18.5411,17.8428,2.6592,29.3242,13.8308,36.4061,30.006,9.1819,20.9715,2.9875,46.1016-14.9494,60.1754-7.3648,5.7787-14.8634,11.386-22.2935,17.0814-1.0377.7955-2.0308,1.6493-3.5775,2.9106,5.404,2.1724,10.1807,3.963,14.8476,6.0058,4.4845,1.9628,8.4163,1.839,12.33-1.529,2.625-2.2587,5.8879-3.7537,8.7117-5.803,8.1688-5.9285,17.074-11.132,24.2064-18.1371,13.4921-13.2511,19.6657-30.1525,19.8921-49.05.2611-21.79-6.79-41.0344-22.7441-55.9368-20.5968-19.2386-45.2391-23.8328-71.995-16.2777-14.41,4.0691-27.16,11.2534-35.6859,24.3441-7.1555,10.986-14.3991,21.9145-21.5283,32.9175-.6193.956-1.2179,2.4632-.9016,3.4013C201.7382,99.7189,203.8333,105.0087,206.1952,111.2925Zm38.1092,44.3615c11.68-8.8961,22.7387-17.4386,33.9381-25.7919a18.1442,18.1442,0,0,0,7.4515-13.6538c.9647-10.48-6.3725-20.237-16.0069-20.6578-6.9108-.3018-13.0575,2.003-17.4108,7.7239-8.0916,10.6337-16.0774,21.3484-24.0983,32.0361-.6582.877-1.2484,1.8052-2.1158,3.0669C232.1575,144.15,238.1172,149.7942,244.3044,155.654Z"/><path d="M103.1381,381.5682c-49.7081.0318-91.43-35.2407-99.176-84.3637-5.2093-33.0371,2.9631-62.4269,25.707-87.3334a38.9361,38.9361,0,0,1,5.8709-5.1865q23.027-16.7134,46.1722-33.2624a7.11,7.11,0,0,0,3.3532-6.4888c-.0114-9.67,2.7678-18.4679,9.1916-25.8983,5.7288-6.6266,14.9365-8.1146,21.52-3.499,7.241,5.0764,9.43,14.1413,4.2364,21.7665-3.78,5.55-3.5156,10.9709-2.1086,16.7745,3.4319,14.1547,10.8794,26.2579,19.9036,37.379,18.0759,22.2763,39.7547,39.9142,66.68,50.4884a76.8946,76.8946,0,0,0,10.0361,2.88c4.1932,1.0162,8.0284.88,12.1042-1.562a15.3479,15.3479,0,0,1,20.4488,3.6822c5.2427,7.1229,4.6412,15.25-1.8438,21.6076-7.1477,7.007-16.1482,9.1411-25.7745,8.9613a6.5057,6.5057,0,0,0-6.1389,3.1415c-10.0132,14.1776-20.291,28.17-30.1836,42.43-8.3652,12.0589-19.6711,20.4619-32.4388,27.0439A103.9867,103.9867,0,0,1,103.1381,381.5682ZM92.2,198.5246a16.6655,16.6655,0,0,0-1.5936.9034q-19.3109,13.8693-38.5954,27.7751a18.02,18.02,0,0,0-2.7231,2.5494,70.9985,70.9985,0,0,0-18.8844,48.42c-.2164,21.7839,6.9761,40.8951,22.8387,55.9151,18.0333,17.0753,39.99,22.2845,64.0993,18.1407,14.8221-2.5474,28.7214-8.4981,38.4984-20.0042,11.2746-13.2686,20.7676-28.0576,31.18-42.3877l-19.7225-10.2375c-3.1919,5.1831-6.2314,10.332-9.49,15.3374-2.2418,3.4432-4.3659,7.1238-7.2708,9.9455-12.9924,12.6206-28.7384,17.0973-46.4128,14.105-13.2343-2.2407-23.9938-8.8836-31.4087-20.35a51.7615,51.7615,0,0,1-8.6486-26.7532c-.564-17.2926,4.8566-31.9906,19.2925-42.36,6.1436-4.4129,12.7081-8.2372,18.971-12.2582ZM122.16,242.8123c-5.5248,3.4081-11.1385,6.842-16.7232,10.3226-9.5816,5.9714-12.0864,15.884-7.0528,26.1645,5.7013,11.6443,23.633,10.4555,29.4846,2.7211,5.0173-6.6316,9.0153-14.0376,13.4238-21.0371Z"/><path d="M123.2789,119.896c-.06-5.4611,2.62-14.7371,9.3986-22.5946a16.2543,16.2543,0,0,1,19.9578-4.236c6.0582,2.9344,9.5485,10.2848,8.0319,17.3928a12.9781,12.9781,0,0,1-2.3283,5.4393c-3.9877,4.8333-3.49,10.189-2.2973,15.6569,2.6891,12.329,8.71,23.1072,16.137,33.0708,18.4292,24.7242,41.3768,43.8411,70.1018,55.544a61.0017,61.0017,0,0,0,9.6541,2.8675c4.5165,1.0137,8.7093,1.263,13.2179-1.4748a15.257,15.257,0,0,1,20.6055,4.2682c4.932,6.98,4.1337,15.0785-2.3325,21.2871-5.9368,5.7-13.2864,8.1958-21.3665,8.6564-14.9123.85-28.6378-3.6676-41.6692-10.1938-36.76-18.41-66.1031-44.8935-85.9182-81.2919C127.7865,152.0083,123.3675,138.9122,123.2789,119.896Z"/><path d="M206.1952,111.2925c-2.3619-6.2838-4.457-11.5736-6.2728-16.9579-.3163-.9381.2823-2.4453.9016-3.4013,7.1292-11.003,14.3728-21.9315,21.5283-32.9175,8.5263-13.0907,21.2758-20.275,35.6859-24.3441,26.7559-7.5551,51.3982-2.9609,71.995,16.2777,15.9543,14.9024,23.0052,34.1469,22.7441,55.9368-.2264,18.898-6.4,35.7994-19.8921,49.0505-7.1324,7.0051-16.0376,12.2086-24.2064,18.1371-2.8238,2.0493-6.0867,3.5443-8.7117,5.803-3.9141,3.368-7.8459,3.4918-12.33,1.529-4.6669-2.0428-9.4436-3.8334-14.8476-6.0058,1.5467-1.2613,2.54-2.1151,3.5775-2.9106,7.43-5.6954,14.9287-11.3027,22.2935-17.0814,17.9369-14.0738,24.1313-39.2039,14.9494-60.1754-7.0819-16.1752-18.5633-27.3468-36.4061-30.006-19.6419-2.9273-36.5816,2.9354-49.3881,18.5411C220.539,91.6345,213.9234,101.0458,206.1952,111.2925Z" style="fill:#fff"/><path d="M244.3044,155.654c-6.1872-5.86-12.1469-11.504-18.2422-17.2766.8674-1.2617,1.4576-2.19,2.1158-3.0669,8.0209-10.6877,16.0067-21.4024,24.0983-32.0361,4.3533-5.7209,10.5-8.0257,17.4108-7.7239,9.6344.4208,16.9716,10.1775,16.0069,20.6578a18.1442,18.1442,0,0,1-7.4515,13.6538C267.0431,138.2154,255.9843,146.7579,244.3044,155.654Z" style="fill:#fff"/><path d="M92.2,198.5246l10.13,18.74c-6.2629,4.021-12.8274,7.8453-18.971,12.2582-14.4359,10.3693-19.8565,25.0673-19.2925,42.36a51.7615,51.7615,0,0,0,8.6486,26.7532c7.4149,11.4663,18.1744,18.1092,31.4087,20.35,17.6744,2.9923,33.42-1.4844,46.4128-14.105,2.9049-2.8217,5.029-6.5023,7.2708-9.9455,3.259-5.0054,6.2985-10.1543,9.49-15.3374l19.7225,10.2375c-10.4129,14.33-19.9059,29.1191-31.18,42.3877-9.777,11.5061-23.6763,17.4568-38.4984,20.0042-24.11,4.1438-46.066-1.0654-64.0993-18.1407-15.8626-15.02-23.0551-34.1312-22.8387-55.9151a70.9985,70.9985,0,0,1,18.8844-48.42,18.02,18.02,0,0,1,2.7231-2.5494q19.2735-13.9214,38.5954-27.7751A16.6655,16.6655,0,0,1,92.2,198.5246Z" style="fill:#fff"/><path d="M122.16,242.8123l19.1324,18.1711c-4.4085,6.9995-8.4065,14.4055-13.4238,21.0371-5.8516,7.7344-23.7833,8.9232-29.4846-2.7211-5.0336-10.2805-2.5288-20.1931,7.0528-26.1645C111.021,249.6543,116.6347,246.22,122.16,242.8123Z" style="fill:#fff"/></svg>